<?xml version="1.0" encoding="utf-8"?>
<svg version="1.1" xmlns="http://www.w3.org/2000/svg" xmlns:xlink="http://www.w3.org/1999/xlink" x="0px" y="0px"
   viewBox="162 13 150 100" style="enable-background:new 0 0 630 420;" xml:space="preserve" width="150" height="100">
  <style>
    path { fill: white; stroke: rgb(7, 119, 179) }
    text { font-family: "ff-dagny-web-pro", Helvetica Neue, Helvetica, sans-serif; }
  </style>
  <g id="arizona">
    <path vector-effect="none" class="st10" d="M204.9,79.3l-0.5-0.2l-0.7,0.1l-0.3-0.1l-0.1-0.2l-0.2,0.1l-0.5-0.9l0-0.4l0.4-0.7
      l0-0.9L203,76l0.2-0.4l-0.7-0.6l0.4-0.7l-0.2-0.9l1-0.1l0.2-0.3l0.1-0.4l0.3-0.2l0.2-0.3l0.8-0.7l-0.1-0.3l0.2-0.6l0.1-0.7
      l-0.1-0.3l0.5-0.4l-0.2-0.5l0.1-0.4l-0.2-0.8l0.1-0.2l-0.1-0.3l0.3-0.9l-0.3-0.4l0.1-0.2l1.2-0.9l0.1-0.7l0.2-0.4l1.1-0.5l0.5-0.4
      l0.6-0.2l1.1-1.2l0.3-0.1l-0.1-0.6l-0.2-0.3l-0.3-0.5l-0.9-0.7l-0.3-0.1l-0.2-0.4l-0.4-0.3l-0.5-0.1l-0.1-0.3l0.1-0.9l-0.4-0.7
      l-0.3-0.2l0.2-0.2l-0.4-1.5l-0.4-0.5l-0.3-0.1l-0.2-0.2l-0.3-1.1l-0.7-0.7l0-0.7l0.1-0.4l-0.1-0.8l0.1,0l-0.1-0.7l0.5-0.5l-0.5-0.7
      l0.1-0.2l0.5,0.1l0.1-0.1l0.2-0.5l0.1-0.7l-0.3-1.3l0-0.8l-0.6-1.4l-0.3-1l0.3-0.4l0-0.6l0.2-0.4l-0.1-0.5l-0.2-0.2l0.1-0.6
      l-0.3-0.6l0.1-0.5l0-1.3l0.4-0.3l0-0.1l-0.4-0.5l-0.4-1.2l0.3-0.7l-0.1-0.3l0-0.4l0.2-0.3l1.1-0.5l0.3,0.1l0.8-0.2l0.8,0.5l0.3,0.1
      l0.8-0.4l0.4,0.2l0.3,0.4l0.1,0.4l-0.1,0.4l0.9,0.7l0.3,0l1-0.3l0.3-1.2l0.8-1.1l0.1-0.3l0.5-9.5l0.1-2.3l13.8,0.7l4.3,0.2l3.7,0.2
      l10.6,0.2l7.4,0.2l3.1,0l0.4,0.2l5.5,0.1l11.4,0l0,15.1l0,15.7l0,5.5l0,12.2l0,8.7l0,6.4l0,5.1l0,16.6l-18.3-0.1l-8.1-0.1l-3.8-1.5
      l-25-10.2l-18.8-7.8l0.3-1.9l1.2-1.5l0.1-0.2l0.2-0.1l1.1,0.3l0-0.1l0.4,0l0-0.2l0.1,0l0-0.2l0.2,0l0-0.2l0.2,0l0-0.3l0.1-0.3
      l0.9-0.5l-0.1-1.4l0.1-0.6L204.9,79.3"/>
    <text transform="matrix(1 0 0 1 214.0301 67.0927)" class="st2 st3 st4">Arizona</text>
  </g>
</svg>