<?xml version="1.0" encoding="utf-8"?>
<svg version="1.1" xmlns="http://www.w3.org/2000/svg" xmlns:xlink="http://www.w3.org/1999/xlink" x="0px" y="0px"
   viewBox="162 140 150 100" style="enable-background:new 0 0 630 420;" xml:space="preserve" width="150" height="100">
  <style>
    path { fill: white; stroke: rgb(7, 119, 179) }
    text { font-family: "ff-dagny-web-pro", Helvetica Neue, Helvetica, sans-serif; }
  </style>
  <g id="maine">
    <path vector-effect="none" class="st5" d="M224.6,217.8l-1.8,1.3l-0.3,5.7l-0.8,0.5l-0.2-0.5l0.7-2.2l-0.5-0.9l-0.8,1.8l-1.3,0.2
      l-0.3-0.5l0.5-1.3l-0.6-0.2l-2.4,0.7l-1.9,2l-0.4,2.5l-2.2,0.4l-1,2.2l-2,1.4l-1.4-0.1l-3.5,4.9l-2.3-1.4l0-0.9l0.7-1.6l-1.1-1.4
      l0.1-0.5l-0.6-1.7l0-0.7l0.5-0.9l0-0.8l0.5-1l0-0.4l0.3-0.3l0-0.4l-0.2-0.2l1.2-4.9l2.6-11l2.1-8.7l3-14.3l2.2-0.3l0.6,2.9l0.8-1
      l0.9-1.6l0-0.9l0.7-0.6l2.3,1.4l-0.6-3l3.5-2.6l2.8-0.7l0.1-1.6l3.2-1.7l0.4-1l-0.8-0.8l1-1.7l-0.3-0.4l1.6-1.3l-0.5-1.4l2.3-2.8
      l2.8-1.4l1.4-3.1l1.2-2.6l16-14l2.6,1.4l-0.8,3.7l1.7,2.2l6.5-1.1l1.8,0.7l1.3-1.4l1.6,0.5l5.2,8.1l-5.8,25l0.2,0.8l-0.8,0.7
      l0.3,1.3l-0.9,0.6l-0.6,2.6l0.7,0.6l0.7-0.4l1.2,2.1l2.7,0.9l-0.1,2.1l-1.5,0.1l0.8,2.8l-1.4,1.9l0.1,2.2l1.1,1.9l1.5-1.1l1.6,1
      l0.1,0.8l0.5,4l-1.6,0.9l2.4,2.4l-0.9,0.9L269,215l-1.7-0.4l-1.1-1.1l-3.4,1.4l-1.1,1.1l-3-1l-0.9,0.2l-1.1,1.7l-1-0.7l0.3-0.7
      l-0.5,0.4l-1,2.1l-0.9-0.1l-0.5-2.3l-1.7-0.8l-2.2,0.9l-0.9-1l-2.3,1l-0.2,2.5l-0.6,0.6l-2.4-2.7l-1.3,0.1l0.5-1.9l1.7-1.8l0.2-1
      l-0.9-1.6l0.3-1.2l-0.9,1l0.6,1.1l-0.5,1.7l-2.7,0.8l-1.3,3.4l-0.7,0.5l-1.8,3.7l-3,2.1l-1.2-0.2l-0.4-1.9l-0.7-0.4l-2.2,2.7
      l-1.9,0.5l-1.2-0.5l0.9-2.8l1-1l-2.3,1.7l-0.7,0.9l-0.3,2.5l-0.5,0.4l-0.3-0.8l1-5.3l0.7-0.3L224.6,217.8"/>
    <path vector-effect="none" class="st7" d="M218.8,184.9l-0.6-3l3.5-2.6l2.8-0.7l0.1-1.6l3.2-1.7l0.4-1l-0.8-0.8l1-1.7l-0.3-0.4
      l1.6-1.3l-0.5-1.4l2.3-2.8l2.8-1.4l1.4-3.1l1.2-2.6l16-14l2.6,1.4l-0.8,3.7l1.7,2.2l6.5-1.1l1.8,0.7l1.3-1.4l1.6,0.5l5.2,8.1
      l-5.8,25l0.2,0.8l-0.8,0.7l0.3,1.3l-0.9,0.6l-0.6,2.6l0.7,0.6l0.7-0.4l1.2,2.1l2.7,0.9l-0.1,2.1l-1.5,0.1l0.8,2.8l-1.4,1.9l0.1,2.2
      l1.1,1.9l1.5-1.1l1.6,1l0.1,0.8l0.5,4l-1.6,0.9l2.4,2.4l-0.9,0.9L269,215l-1.7-0.4l-1.1-1.1l-3.4,1.4l-1.1,1.1l-3-1l-0.9,0.2
      l-1.1,1.7l-1-0.7l0.3-0.7l-0.5,0.4l-1,2.1l-0.9-0.1l-0.5-2.3l-1.7-0.8l-2.2,0.9l-0.9-1l-2.3,1l-0.2,2.5l-0.6,0.6l-2.4-2.7l-1.3,0.1
      l0.5-1.9l1.7-1.8l0.2-1l-0.9-1.6l0.3-1.2l-0.9,1l0.6,1.1l-0.5,1.7l-2.7,0.8l-1.3,3.4l-0.7,0.5l-1.8,3.7l-3,2.1l-1.2-0.2l-0.4-1.9
      l-0.7-0.4l-2.2,2.7l-1.9,0.5l-1.2-0.5l0.9-2.8l1-1l-2.3,1.7l-0.7,0.9l-0.3,2.5l-0.5,0.4l-0.3-0.8l1-5.3l0.7-0.3l0-0.6"/>
    <path vector-effect="none" class="st7" d="M224.6,217.8l-1.8,1.3l-0.3,5.7l-0.8,0.5l-0.2-0.5l0.7-2.2l-0.5-0.9l-0.8,1.8l-1.3,0.2
      l-0.3-0.5l0.5-1.3l-0.6-0.2l-2.4,0.7l-1.9,2l-0.4,2.5l-2.2,0.4l-1,2.2l-2,1.4l-1.4-0.1l-3.5,4.9l-2.3-1.4l0-0.9l0.7-1.6l-1.1-1.4
      l0.1-0.5l-0.6-1.7l0-0.7l0.5-0.9l0-0.8l0.5-1l0-0.4l0.3-0.3l0-0.4l-0.2-0.2l1.2-4.9l2.6-11l1.9-8.1"/>
    <text transform="matrix(1 0 0 1 201.3851 196.0518)" class="st2 st3 st4">Maine</text>
  </g>
</svg>