<?xml version="1.0" encoding="utf-8"?>
<svg version="1.1" xmlns="http://www.w3.org/2000/svg" xmlns:xlink="http://www.w3.org/1999/xlink" x="0px" y="0px"
   viewBox="318 140 150 100" style="enable-background:new 0 0 630 420;" xml:space="preserve" width="150" height="100">
  <style>
    path { fill: white; stroke: rgb(7, 119, 179) }
    text { font-family: "ff-dagny-web-pro", Helvetica Neue, Helvetica, sans-serif; }
  </style>
  <g id="mississippi">
    <path vector-effect="none" class="st5" d="M417.8,214.2l0.4,6.1l0.1,2.3l0.3,5.1l0.4,6.6l0,0.8l-1.1,0.5l-1.9-1l-1.8,0.8l-3.2-1.7
      l-0.9,0.3l0.7,0.3l-6.5,1.7l0-1.1l-1-0.1l-0.4,0.3l0.7,0.9L402,237l-0.4,1.1l-2.3,0.1l-0.6-0.9l0.1-0.1l-0.3-0.2l-0.1-0.6l-0.2-0.1
      l0-0.3l0.3-0.2l0-0.4l-0.2-0.2l-0.2,0l-0.1-0.5l-0.3-0.4l0-0.9l-0.1-0.3l-0.2-0.1l0-0.2l-0.3-0.1l-0.1-0.3l-0.2,0l-0.4-0.3
      l-0.3-0.7l-0.3-0.1l-0.5-1.4l0.2-0.5l-0.2,0l-0.2-0.4l-0.3,0.1l0.2-0.2l-0.1-0.1l0-0.4l0.2-0.1l-0.2-0.2l0.1-0.3l0.2-0.1l0-0.2
      l0.2-0.1l-0.2-0.8l0.2-0.4l0.2,0l0-0.3l0.4,0l-0.2-0.6l0.3,0l0-0.7l0.3,0l0-0.1l-0.2-0.2l0.3-0.1l-0.1-0.5l0.2-0.3l0.3-0.2
      l-0.1-0.2l0.1-0.3l-0.2-0.1l-1.7,0l-7.1,0l-1.4,0l-3.3,0l-0.3,0l-4.5,0l-3.8,0l-2,0l-7.5-0.1l0.1-0.2l0.9-0.4l0.4-0.5l-0.2-0.5
      l-0.9-0.9l0.5-1l-0.1-0.7l-0.6-0.5l-0.1-0.6l0.2-0.1l1.3,0.2l0.7-0.2l0.2-0.3l0-0.5l-0.6-0.5l0-0.4l0.2-0.3l-0.4-0.1l-0.1-0.6
      l0.3-0.2l0.3,0l0,0.5l0.2,0.3l0.5,0.3l0.2,0l0.3-0.5l-0.1-0.3l-0.6-0.6l0.1-1.4l0.1-0.2l0.6-0.1l0.7-0.4l0.3-0.4l-0.2-0.3l-1.4-0.1
      l-0.2-0.3l0-0.4l0.2-0.1l0.7,0.5l0.8,0l0.3-0.6l0-1.2l0.4-0.7l-0.1,0l0.5-0.1l0.9,0.2l0.3-0.2l0-0.3l-1.2,0.2l-0.5-0.1l0.3-0.5
      l0.2-0.9l0.5-0.4l0.2,0l0.3,0.7l0.4,0.2l0.2-0.3l-0.4-0.6l0.3-0.2l0.7-0.7l0.7-1.4l0.9-0.1l0.6-0.6l0-0.2l-0.2-0.2l-0.9-0.4l0-0.4
      l0.3,0l0.6,0.6l0.4,0l-0.1-0.7l0.5-0.3l0.5-0.5l0.1-0.7l-0.3,0l-0.5-0.3l0.1,0.5l-0.1,0.5l-0.5-0.3l-0.4,0.3l-0.8-0.2l-0.2-0.5
      l0.2-0.7l0.7-0.4l0.3,0.2l0.2-0.3l0.4,0l0.3-0.3l1,0.5l0.1-0.9l-0.2-0.3l0.1-0.2l0.1-0.1l0.7,0.1l0.2-0.2l0.7-1.4l-0.2,0l-0.5,0.7
      l-1.1-0.2l-0.2-0.2l-0.2-0.6l0.6-0.4l0.1-0.4l-0.4-0.3l-0.6,0.2l-0.5-0.1l-1-1l0-0.5l0.5-0.5l0.8,1l0.3,0.1l0.5-0.1l0-0.3l-1.1-0.6
      l-0.2-0.4l0.2-0.3l0.4-0.1l0.6-0.6l0-0.2l-0.2-0.3l-0.3,0l-0.3,0.5l-0.3,0.2l-0.8,0.2l-0.6-0.9l0.1-0.3l1.3-1.1l-0.6-0.5l-0.6,0
      l-0.3-0.2l0.3-1.5l1-0.7l0.1-1.5l-0.3-0.7l-0.3,0l-0.3,0.2l0,0.7l-0.1,0.4l-0.5,0.2l-0.5-0.2l-0.2-0.4l0.8-1.2l0-0.2l0-0.2l0.1-0.4
      l0.5-0.1l0.1-0.4l-0.5-0.5l-0.7-0.4l-0.1-0.5l0.3-0.2l0.9,0.4l0.4-0.3l0.2-0.3l-0.1-1.2l0.6-0.4l0.2-0.7l-0.2-0.2l-0.4,0l-0.4,0.8
      l-0.3-0.4l-0.3-1l0.2-0.7l0.4-0.6l0.5-0.3l0.3-0.4l0-0.5l-0.2-0.1l-0.2,0.1l-0.2,0.9l-0.6,0.5l-0.8-0.1l-0.3-0.4l0.1-0.1l1.1-0.4
      l0.2-0.2l0-0.3l-0.2-0.5l-0.6-0.4l-0.2,0.1l0,0.7l-0.2,0.4l-0.8,0.1l0.1-0.3l0.3-0.3l0.5-0.7l0-0.2l-0.3-0.3l-0.2,0l-0.2-0.3l0-0.7
      l0.6,0.3l0.3,0l0.3-0.7l-0.1-0.4l-0.8-0.6l-0.2-0.4l0.1-0.4l0.8-0.2l0.7,0.8l0.6,0.3l0.7-0.4l0-0.4l-0.3-0.3l-0.8,0.2l-0.4-0.1
      l-0.1-0.2l-0.1-0.9l0.1-0.2l0.5,0.1l0.6-0.2l0.4,0.3l0.4,0.1l0.4-0.1l0.2-0.3l-0.1-0.3l-0.6-0.3l-0.4-0.5l-0.1-0.5l0.7-1.3
      l-0.9-0.7l-0.2-0.4l0.3-0.2l0.6,0.4l0.3-0.1l0.1,0.4l0.2,0.1l0.4-0.1l0.1-0.2l-0.2-0.3l0-0.3l0.4-0.4l1-0.2l0.3-1.2l-0.6,0
      l-0.6-0.5l-0.2-0.6l0.4-0.6l1.3,0.7l0.3,0l0.3-0.3l-0.2-0.5l-1.6-0.3l-0.2-0.6l0.1-0.3l1,0.6l0.5-0.2l0.1-0.9l0.3-0.4l0.2,0
      l0.5,0.4l0.2-0.7l-0.2-0.9l0.1-0.2l1.1-0.1l0.1,0.3l-0.1,0.8l0.2,0l0.3-0.2l0-0.7l0.9-0.7l0.4-0.5l0.1-0.4l-0.2-0.8l0.2-0.5
      l0.2-0.2l0.5-0.2l0.1-0.2l-0.7-1l-0.2-0.4l0.1-0.3l0.3-1.1l0.3,0.3l-0.1,0.7l0.1,0.3l0.5,0l0.7-0.6l-0.1-0.6l-0.7,0l-0.3-0.2
      l-0.2-1.5l0.3-0.3l0.2,0l0.2,0.3l0,0.5l-0.3,0.3l0.2,0.4l0.3,0.1l0.5-0.3l0-0.4l-0.3-0.8l0.2-0.5l-0.4-0.6l0.1-0.4l0.5-0.1l0.2,0.3
      l-0.1,0.7l0.2,0.1l0.3-0.2l1-0.4l0.3,0.2l0.3,0l0-0.3l0.1-0.3l0.5-0.3l0.4-0.5l0-0.3l-0.1-0.2l-0.8-0.6l-0.1-0.4l9.3,0l1.1,0l4.8,0
      l2.3,0l3,0l3.1-0.1l0.4,0l6.3-0.1l0.5,0l2.5-0.1l0.8,1.4l0.6,0.6l0.3,0.1l-0.6,6.1l-0.2,2.2l-0.2,2.7l-0.4,4.5l0,0.6l-0.6,6.1
      l-0.4,3.9l-0.4,4.8l-0.5,5.8l-0.1,1.2l-0.6,6.6l-0.4,5.2l-0.2,1.6l-0.5,6.5l0.2,3.6L417.8,214.2"/>
    <path vector-effect="none" class="st6" d="M417.6,201l-0.3,4.4l0.2,3.6l0.3,5.1"/>
    <path vector-effect="none" class="st6" d="M374,183.2l0.1-0.4l-0.5-0.5l-0.7-0.4l-0.1-0.5l0.3-0.2l0.9,0.4l0.4-0.3l0.2-0.3
      l-0.1-1.2l0.6-0.4l0.2-0.7l-0.2-0.2l-0.4,0l-0.4,0.8l-0.3-0.4l-0.3-1l0.2-0.7l0.4-0.6l0.5-0.3l0.3-0.4l0-0.5l-0.2-0.1l-0.2,0.1
      l-0.2,0.9l-0.6,0.5l-0.8-0.1l-0.3-0.4l0.1-0.1l1.1-0.4l0.2-0.2l0-0.3l-0.2-0.5l-0.6-0.4l-0.2,0.1l0,0.7l-0.2,0.4l-0.8,0.1l0.1-0.3
      l0.3-0.3l0.5-0.7l0-0.2l-0.3-0.3l-0.2,0l-0.2-0.3l0-0.7l0.6,0.3l0.3,0l0.3-0.7l-0.1-0.4l-0.8-0.6l-0.2-0.4l0.1-0.4l0.8-0.2l0.7,0.8
      l0.6,0.3l0.7-0.4l0-0.4l-0.3-0.3l-0.8,0.2l-0.4-0.1l-0.1-0.2l-0.1-0.9l0.1-0.2l0.5,0.1l0.6-0.2l0.4,0.3l0.4,0.1l0.4-0.1l0.2-0.3
      l-0.1-0.3l-0.6-0.3l-0.4-0.5l-0.1-0.5l0.7-1.3l-0.9-0.7l-0.2-0.4l0.3-0.2l0.6,0.4l0.3-0.1l0.1,0.4l0.2,0.1l0.4-0.1l0.1-0.2
      l-0.2-0.3l0-0.3l0.4-0.4l1-0.2l0.3-1.2l-0.6,0l-0.6-0.5l-0.2-0.6l0.4-0.6l1.3,0.7l0.3,0l0.3-0.3l-0.2-0.5l-1.6-0.3l-0.2-0.6
      l0.1-0.3l1,0.6l0.5-0.2l0.1-0.9l0.3-0.4l0.2,0l0.5,0.4l0.2-0.7l-0.2-0.9l0.1-0.2l1.1-0.1l0.1,0.3l-0.1,0.8l0.2,0l0.3-0.2l0-0.7
      l0.9-0.7l0.4-0.5l0.1-0.4l-0.2-0.8l0.2-0.5l0.2-0.2l0.5-0.2l0.1-0.2l-0.7-1l-0.2-0.4l0.1-0.3l0.3-1.1l0.3,0.3l-0.1,0.7l0.1,0.3
      l0.5,0l0.7-0.6l-0.1-0.6l-0.7,0l-0.3-0.2l-0.2-1.5l0.3-0.3l0.2,0l0.2,0.3l0,0.5l-0.3,0.3l0.2,0.4l0.3,0.1l0.5-0.3l0-0.4l-0.3-0.8
      l0.2-0.5l-0.4-0.6l0.1-0.4l0.5-0.1l0.2,0.3l-0.1,0.7l0.2,0.1l0.3-0.2l1-0.4l0.3,0.2l0.3,0l0-0.3l0.1-0.3l0.5-0.3l0.4-0.5l0-0.3
      l-0.1-0.2l-0.8-0.6l-0.1-0.4l9.3,0l1.1,0l4.8,0l2.3,0l3,0l3.1-0.1l0.4,0l6.3-0.1l0.5,0l2.5-0.1l0.8,1.4l0.6,0.6l0.3,0.1l-0.6,6.1
      l-0.2,2.2l-0.2,2.7l-0.4,4.5l0,0.6l-0.6,6.1l-0.4,3.9l-0.4,4.8l-0.5,5.8"/>
    <path vector-effect="none" class="st6" d="M417.8,214.2l0.4,6.1l0.1,2.3l0.3,5.1l0.4,6.6l0,0.8l-1.1,0.5l-1.9-1l-1.8,0.8l-3.2-1.7
      l-0.9,0.3l0.7,0.3l-6.5,1.7l0-1.1l-1-0.1l-0.4,0.3l0.7,0.9L402,237l-0.4,1.1l-2.3,0.1l-0.6-0.9l0.1-0.1l-0.3-0.2l-0.1-0.6l-0.2-0.1
      l0-0.3l0.3-0.2l0-0.4l-0.2-0.2l-0.2,0l-0.1-0.5l-0.3-0.4l0-0.9l-0.1-0.3l-0.2-0.1l0-0.2l-0.3-0.1l-0.1-0.3l-0.2,0l-0.4-0.3
      l-0.3-0.7l-0.3-0.1l-0.5-1.4l0.2-0.5l-0.2,0l-0.2-0.4l-0.3,0.1l0.2-0.2l-0.1-0.1l0-0.4l0.2-0.1l-0.2-0.2l0.1-0.3l0.2-0.1l0-0.2
      l0.2-0.1l-0.2-0.8l0.2-0.4l0.2,0l0-0.3l0.4,0l-0.2-0.6l0.3,0l0-0.7l0.3,0l0-0.1l-0.2-0.2l0.3-0.1l-0.1-0.5l0.2-0.3l0.3-0.2
      l-0.1-0.2l0.1-0.3l-0.2-0.1l-1.7,0l-7.1,0l-1.4,0l-3.3,0l-0.3,0l-4.5,0l-3.8,0l-2,0l-7.5-0.1l0.1-0.2l0.9-0.4l0.4-0.5l-0.2-0.5
      l-0.9-0.9l0.5-1l-0.1-0.7l-0.6-0.5l-0.1-0.6l0.2-0.1l1.3,0.2l0.7-0.2l0.2-0.3l0-0.5l-0.6-0.5l0-0.4l0.2-0.3l-0.4-0.1l-0.1-0.6
      l0.3-0.2l0.3,0l0,0.5l0.2,0.3l0.5,0.3l0.2,0l0.3-0.5l-0.1-0.3l-0.6-0.6l0.1-1.4l0.1-0.2l0.6-0.1l0.7-0.4l0.3-0.4l-0.2-0.3l-1.4-0.1
      l-0.2-0.3l0-0.4l0.2-0.1l0.7,0.5l0.8,0l0.3-0.6l0-1.2l0.4-0.7l-0.1,0l0.5-0.1l0.9,0.2l0.3-0.2l0-0.3l-1.2,0.2l-0.5-0.1l0.3-0.5
      l0.2-0.9l0.5-0.4l0.2,0l0.3,0.7l0.4,0.2l0.2-0.3l-0.4-0.6l0.3-0.2l0.7-0.7l0.7-1.4l0.9-0.1l0.6-0.6l0-0.2l-0.2-0.2l-0.9-0.4l0-0.4
      l0.3,0l0.6,0.6l0.4,0l-0.1-0.7l0.5-0.3l0.5-0.5l0.1-0.7l-0.3,0l-0.5-0.3l0.1,0.5l-0.1,0.5l-0.5-0.3l-0.4,0.3l-0.8-0.2l-0.2-0.5
      l0.2-0.7l0.7-0.4l0.3,0.2l0.2-0.3l0.4,0l0.3-0.3l1,0.5l0.1-0.9"/>
    <text transform="matrix(1 0 0 1 352.6829 196.0522)" class="st2 st3 st4">Mississippi</text>
  </g>
</svg>