<?xml version="1.0" encoding="utf-8"?>
<svg version="1.1" xmlns="http://www.w3.org/2000/svg" xmlns:xlink="http://www.w3.org/1999/xlink" x="0px" y="0px"
   viewBox="475 13 150 100" style="enable-background:new 0 0 630 420;" xml:space="preserve" width="150" height="100">
  <style>
    path { fill: white; stroke: rgb(7, 119, 179) }
    text { font-family: "ff-dagny-web-pro", Helvetica Neue, Helvetica, sans-serif; }
  </style>
  <g id="new-york">
    <path vector-effect="none" class="st7" d="M500.2,77.3l4.9-3.1l1.4-1.5l3.3-1.7l1.5-2.6l2.8-1.9l-1.2-3.8l0.8-1l-0.6-0.9l-2.1-0.5
      l0.3-1.1l-0.3-2.6l9-2.1l7.1,0.1l3.7,0.6l2.6,1.9l3-0.7l7-0.2l2.7-1.4l0.3,0.4l1.5-1.9l2.5-1.8l3.5-1.2l0.5-1.7l-0.3-1l-0.6-3.2
      l0.7-1.6l1-0.4l-0.1-1.7l-1-1.1l-1.4,0.5l-1-1.1l7.5-6.3l1.3-2.7l6.2-6.3l5.2-3.1l3.4-1.1l10.5-0.4l9.9-0.8l-0.1,0.5l0.3,1
      l-0.6,1.8l0.2,0.6l0.6,0.4l-0.6,1.6l0.3,0.9l-0.2,0.4l0.1,0.6l-0.2,0.3l0.2,0.8l0.4,0.5l0.2,0.2l0.7,2.3l-0.1,0.6l-0.4,0.8l0.5,2.2
      l-1,1.3l0,0.6l-0.3,0.8l0,0.6l-0.3,0.9l0,0.4l0.4,0.5l-0.1,0.6l0.3,1.5l0.5,0.6l-0.1,1.7l0.4,0.5l0.1,0.5l-0.2,0.9l-0.7,1.7l0.1,1
      l0.5,0.3l0.3-1l0.9-0.3l0.1,0.1l0.2,0.5l-0.1,0.4l0.5,0.3l0.4,0.9l0.1,4.2l0,7.7l0.1,2.1l-0.2,0.7l0.5,1.1l0.2,0l-1.1,5.1l-1.8,9
      l0.3,0.6l-0.1,7.9l0,3l0,3.3l0,1.5l1.2,1.7l-3.7,2.5l1.2,1.8l0,0.3l-1.9,2.4l-0.2,1.1l-1.9,0.7l-1.3,2.1l0-0.7l0.4-1.3l0.8-1.9
      l0.2-0.9l0.2-0.7l0-0.8l-5.1-2.4l-0.5-0.3l-2.1-1.1l-5.2-3l-0.1-0.5l-0.6-0.5l0-0.4l-0.2-0.2l-0.6,0l-1.1-0.3l-0.5,0.1l-0.1-0.4
      l-0.5-0.4l-0.6,0l-0.7-1.1l-0.2-0.5l-0.7-0.8l0-0.2l0.3-0.5l-0.3-1.6l0.1-0.3l-0.1-0.9l-0.6-0.2l0-0.4l0.3-0.4l-0.6-0.5l-0.1-0.2
      l-0.4-0.1l-0.4-0.2l-1.3,0l-0.5-1.6l-0.6-0.3l-0.4-0.6l-0.6-0.1l-1.5,0.1l-9.6,0.2l-0.6,0l-6.5,0.1l-5.6,0.1l-0.6,0l-9.9,0.2l-2,0
      l-7.1,0l-1.6,0l-9.5,0l-2.2,0l-8.5-0.1l-2.3-0.1L500.2,77.3"/>
    <text transform="matrix(1 0 0 1 521.2972 75.0929)" class="st2 st3 st4">New York</text>
  </g>
</svg>