<?xml version="1.0" encoding="utf-8"?>
<svg version="1.1" xmlns="http://www.w3.org/2000/svg" xmlns:xlink="http://www.w3.org/1999/xlink" x="0px" y="0px"
   viewBox="6.5 13 150 100" style="enable-background:new 0 0 630 420;" xml:space="preserve" width="150" height="100">
  <style>
    path, polygon { fill: white; stroke: rgb(7, 119, 179) }
    text { font-family: "ff-dagny-web-pro", Helvetica Neue, Helvetica, sans-serif; }
  </style>
  <g id="oregon">
    <polygon class="st11" points="69.7,101.6 59.1,101.3 47.4,101 43.7,100.9 39.9,100.9 35,100.6 33.3,98.7 32.8,96 32.7,92.7 
      33.5,90.5 33.4,89.3 31.8,85.4 32.9,83.2 34.5,77.8 34.3,77.1 36.1,74.3 36.9,71.7 38.1,67.2 39.1,59.9 40.4,52.8 40.3,50.1 
      41.4,46.2 42.4,41.6 42.3,38.1 42.9,37.7 43.4,38.4 43.8,37.9 42.8,36.6 43.1,34.2 42.8,32.9 43.1,31.2 42.7,29.9 43.7,28.7 
      43.3,25.3 45.3,27 45.6,26.4 45.1,25.5 45.8,25.2 46.3,26 46.8,25.9 48.7,24.9 50.4,26.6 51.1,26.6 51.7,26.6 52.2,26.2 52.6,25.9 
      53.3,26 54.1,26.5 54.9,27.3 55.7,27.9 56,28.8 56.7,30.4 56.7,31.1 56.9,31.7 56.9,32 56.8,32.9 57,33.7 56.9,34.3 56.9,35.7 
      57.7,36 58.2,36.5 59.2,36.7 60.7,37.3 61.6,37.3 62.2,37.7 62.9,37.6 64.9,36.9 65.9,36.4 66.2,36.1 66.8,36 67.2,35.4 68.2,35 
      68.8,35.2 69.4,35.2 71.5,34.7 72.5,35.2 72.7,35.3 73.4,35.1 74,35.2 74.5,35.5 75.2,35.7 75.3,35.9 75.4,36.7 75.6,36.9 
      76.2,36.8 76.8,36.1 77.3,36 78.1,36.1 78.3,36 78.8,36.3 79.3,35.8 81.3,35 81.8,34.6 82.2,34.4 82.8,34.5 83.6,35.3 84.3,35.4 
      86.2,34.9 87.1,34.9 87.7,34.1 88.8,33.8 89.6,33.2 91.1,32.8 91.6,32.7 93.4,32.5 94.1,31.6 94.5,31.4 95.4,31.6 96.2,31.4 
      96.9,31.3 97.8,31 99.3,31.2 99.7,31.1 101,30.4 101.6,29.8 113.2,29.6 113.4,29.6 117.8,29.5 119.2,29.5 125.8,29.4 126.1,29.6 
      126.6,31 127.4,32 127.6,32.5 128.4,32.5 129,33.1 130.1,33.7 130.5,34.3 130.7,35.2 131.2,36.2 131.1,36.9 130.2,38.2 130.1,38.9 
      128.9,41.1 128.7,42.5 128.1,44.7 127.8,45.3 127.6,45.4 127.5,45.8 127.3,46.3 126.7,46.9 126.8,47.2 126.7,47.6 126.8,47.7 
      127,47.7 126.8,48 127,48.6 126.6,49.6 126.3,50 126.1,50.3 125.6,51.3 124.6,51.8 124.2,52.7 124.1,52.9 123.5,55 123.3,55.2 
      123.3,55.7 122.8,56.1 122.6,56.6 122.4,56.8 122.5,57.6 122.2,58.3 122.7,59.2 122.5,59.9 122.5,60.2 123,60.7 123.4,60.8 
      123.7,60.4 123.9,60.5 124.1,60.9 124.5,61.1 124.7,60.8 125.2,60.8 125.4,61.2 125.3,61.7 126.2,62 126.3,62.6 125.8,63.5 
      125.6,63.6 125.4,63.9 125.9,64.9 125.5,65.9 125.6,66.5 125.4,66.9 125.4,67.5 125.3,67.7 124.9,67.9 125,68.1 124.8,68.3 
      124.7,68.8 124.9,69.7 124.8,71 125.1,101.2 110.5,101.5 96.4,101.8 95.9,101.8 87.8,101.9 76.8,101.8  "/>
    <text transform="matrix(1 0 0 1 53.6139 69.0927)" class="st2 st3 st4">Oregon</text>
  </g>
</svg>