<?xml version="1.0" encoding="utf-8"?>
<svg version="1.1" xmlns="http://www.w3.org/2000/svg" xmlns:xlink="http://www.w3.org/1999/xlink" x="0px" y="0px"
   viewBox="474 140 150 100" style="enable-background:new 0 0 630 420;" xml:space="preserve" width="150" height="100">
  <style>
    path { fill: white; stroke: rgb(7, 119, 179) }
    text { font-family: "ff-dagny-web-pro", Helvetica Neue, Helvetica, sans-serif; }
  </style>
  <g id="south-dakota">
    <path vector-effect="none" class="st1" d="M513.4,215l-3.1-0.2l-7.1-0.2l-7.9-0.4l0.3-9.3l0-0.5l0.2-6.8l0.2-5.7l0-0.7l0.3-7.6
      l0.3-8.2l0.2,0l0.1-4.2l0.4-13.1l0.1-1.2l14.4,0.5l0.7,0l12.9,0.2l20.3,0.2l8.7-0.1l2.2,0l9.7-0.1l3.8,0l9.8-0.1l0.5,0l10.2-0.4
      l9.1-0.3l-0.2,2.3l-0.2,0.2l-0.7,1.4l-2.3,1.8l-0.3,0.8l0.2,0.5l1.1,1.3l0.5,1.1l0.7,0.9l1.2,0.2l1,0.4l0.8,0.9l0.3,0.6l0.1,0.5
      l0.3,5.9l0.2,3.3l0.1,3.4l0.1,1.8l0.3,6.6l0.3,6.8l0.3,6.8l-1.9,0.1l0.2,0.3l0,0.9l0.5,0.7l0.5,0.3l0.1,0.5l-0.2,1l-0.5,0.4
      l0.1,0.5l0.2,0.2l-0.1,0.3l0.1,0.3l1,0.1l0.2,0.2l0.4,1.6l-0.1,0.8l0,0.2l-0.2,0.3l-0.6,0.2l0.3,0.8l-0.2,0.5l0.1,0.7l-0.4,0.8
      l0.1,0.3l-0.2,1l-0.2,0.3l-0.2,0l-0.2,0.7l-0.4,0.5l-0.1,0.6l0.2,0.8l0.9,0.7l0.3,0.1l0.4,0.6l0.4,0.9l-0.2,0.1l0.2,0.2l0.2,0.9
      l0.6,0.5l-0.8,0.1l-0.8-0.6l-0.5,0.1l-0.3,0.2l-0.4-0.3l-0.1-0.5l-1.2-1.1l0-0.2l0.3-0.4l-0.1-0.3l-0.3-0.2l-1.1,0l-0.2-0.2l0-0.4
      l-1.4-0.5l-0.9,0.2l-0.1-0.1l0.1-0.5l-0.1-0.1l-0.5,0l-1.7-0.2l-0.5-0.5L593,218l-0.2-0.6l-0.3-0.2l-0.4,0.1l-0.6-0.2l-1.1-0.1
      l-1,0.4l-0.4-0.1l-0.3,0l-0.9,0.3l-0.9-0.2l-0.7,0.5l-0.6-0.4l-0.7,0.3l-0.4-0.1l-0.3-0.3l-1,0.2l0,0.5l-0.5,0.8l-0.5,0.4l-0.4,0.1
      l-0.5,0l-1.3-0.7l0-0.2l-0.3-0.3l-0.3-0.1l-2.1-0.8l-1.2-0.7l-1-0.3l-0.6-1.1l-10.8,0.2l-4,0.1l-9.5,0.1l-14.7,0.1l-12.2-0.2
      L513.4,215"/>
    <text transform="matrix(1 0 0 1 527.7412 181.0522)"><tspan x="0" y="0" class="st2 st3 st4">South</tspan><tspan x="-4.5" y="20" class="st2 st3 st4">Dakota</tspan></text>
  </g>
</svg>