<?xml version="1.0" encoding="utf-8"?>
<svg version="1.1" xmlns="http://www.w3.org/2000/svg" xmlns:xlink="http://www.w3.org/1999/xlink" x="0px" y="0px"
   viewBox="319 13 150 100" style="enable-background:new 0 0 630 420;" xml:space="preserve" width="150" height="100">
  <style>
    path { fill: white; stroke: rgb(7, 119, 179) }
    text { font-family: "ff-dagny-web-pro", Helvetica Neue, Helvetica, sans-serif; }
  </style>
  <g id="texas">
    <path vector-effect="none" class="st9" d="M350.6,62.4l-1.5-0.8l-1.2-2.2l-1.1-0.5l-0.5-0.3l0-0.2l-0.2-0.4l0.1-0.2l0-0.5l-0.1-0.1
      l0.2-0.2l1.8,0.1l2.7,0.1l7.8,0.1l0.5,0l6,0l0.3,0l1.8,0l2.9,0l2,0l0-0.7l-0.1-3.6l0.1-3.7l0-3.6l0-1.6l0-2.2l0-4.1l0-3.7l0-1.8
      l0-1.8l0-3.8l0-1l0-2.6l0-3.7l0.2,0l5.6-0.1l0.9,0l2.8-0.1l3.6-0.1l0.9,0l2.8-0.1l3.7-0.2l0,0l0.2,3.7l0.1,1.5l0.1,2.2l0.1,1.6
      l0.1,2l0.1,1.3l0.1,2.4l0.1,1.6l0.2,0l0.2-0.2l0.1,0l0.4,0.2l0.1,0.2l0.2,0.1l0.4,0.5l0.7,0.5l0.6,0l0.1-0.1l0-0.2l0.2-0.1l0.4,0.1
      l0.2,0.2l0.3,0.1l0.2,0l0.1-0.2l0-0.3l0.2-0.2l0.3,0.3l0.4,0.1l0.1,0.2l0.4,0.3l0.1,0.2l0,0.4l0.1,0.3l0.1,0.1l0.3,0.1l0.3-0.1
      l0.3,0.1l0.3-0.1l0.3,0.1l0.4,0.3l0.6,0.1l0.2,0.1l0.5,0l0.2-0.2l0.1,0l0.2-0.1l0.1,0.1l0.2,0.1l0.1,0.3l0.4,0.3l0.4,0.1l0.2-0.1
      l0.1-0.1l0.1,0l0-0.2l0.2-0.2l0.2,0l0.3,0.1l0.7,0l0.2-0.2l0.1-0.1l0.2,0.1l-0.1,0.6l0.2,0.5l0.2,0.1l0.2,0l0.3-0.1l0.2,0.2l0,0.1
      l-0.1,0.1l0.1,0.1l-0.2,0.2l0,0.1l0.2,0.2l0.3,0.1l0.3,0.1l0.1,0l0.4-0.3l0.2-0.4l0.2-0.1l0.2-0.3l0.2-0.2l0.5,0.1l0.1,0.4l0.1,0.1
      l0.1,0l0.2-0.1l0.3,0.1l0.1,0l0,0.1l0.1,0.5l0.3,0.1l0.3-0.1l0.1-0.3l0.2-0.1l0-0.2l0.3,0.2l0.1,0.1l0.1-0.1l0-0.2l0.2-0.1l0.2,0
      l0.2,0.3l0,0.1l-0.2,0.1l-0.1,0.1l0.2,0.6l0.3,0.2l0.3,0l0.2-0.1l0-0.1l-0.1-0.5l0.3-0.2l-0.2-0.1l0-0.1l0.1-0.1l0.3,0.1l0.1-0.1
      l0.1-0.2l0-0.6l0.1,0l0.2-0.1l0-0.1l0.2,0.1l0.1,0.2l0.1,0.3l0.1,0.2l0.1,0l0.2-0.1l0.1,0l0.4,0.3l0.3,0l0.1-0.1l0.1-0.5l0.1-0.1
      l0.6,0.1l-0.2,0.3l0.1,0.2l0.3,0.1l0.4,0.1l0.1,0.2l0.1,0.1l0.5-0.1l0.4,0.4l0.2,0.3l0.2,0l0.1-0.1l0-0.4l0.1-0.1l0.5,0.1l0.2,0
      l0.1-0.1l0-0.2l0.1-0.2l-0.1,0l-0.2,0.1l0-0.1l0.1-0.1l0.1-0.1l0.3,0l0.1-0.1l0.3,0l0.1-0.1l0.1,0.1l0.1-0.1l0-0.1l0.1,0l0.1,0.1
      l0.1-0.1l0.1-0.2l0.1,0l0.6,0.4l0.1,0l0.2-0.2l0.2,0.1l0-0.2l0-0.1L423,39l0.3,0l0.4-0.3l0.1,0l0-0.1l0.1-0.1l0.3,0l0.1,0.3l0.2,0
      l0,0.1l-0.1,0.1l0,0.1l0.2-0.1l0.1,0.1l0.2-0.1l0.1,0.2l0.8-0.1l-0.1-0.2l0.2,0.1l0.1,0l0-0.3l0.1,0.2l0.1-0.1l0-0.3l0.1-0.2
      l0.6,0.1l0.1,0l0,0.2l0.1,0l0.2-0.1l0.1,0l0,0.2l0,0.1l0.1-0.3l0,0.2l0.2,0.1l0.1,0.1l0.2,0l0.2,0.1l0.1-0.1l0.1,0.1l0.1,0l0,0.2
      l0.2,0l0.1,0.1l0,0.1l0.2,0.1l0.2,0.2l0.3,0l0.1,0.1l0.1-0.1l0.1,0l-0.1,0.1l0,0.1l0.2,0l-0.1,0.2l0.1,0l-0.1,0.1l0.1,0l0.4,0.1
      l0.2-0.1l0.1,0l0.1,0.1l-0.2,0.1l0,0l0.1,0l0.1-0.1l0-0.1l0.2,0.1l0.1-0.1l0.1,0.1l0.1,0l0,0.1l-0.1,0l0,0.1l0.1,0l0.2-0.1l0,0.1
      l-0.1,0.1l0,0.1l0.1,0l0.2-0.1l0,0.2l0.1-0.1l0.1,0.1l0.2-0.1l0.3-0.1l0,0.2l-0.1,0.1l0.1,0.1l0.1,0l0.2,0.2l0.1,0l0.1-0.2l0.1,0
      l0,0.1l-0.2,0.1l0.2,0.1l0.3-0.2l0.2,0.1l0-0.2l0.1-0.1l0.1,0l0,0.2l0.2-0.3l0.1,0l-0.1,0.2l0.2,0l0-0.2l0.3-0.1l0.1,0.2l0.4-0.1
      l0.1-0.1l0.2,0l0.2,0.2l0.3,2.4l0.2,2.1l0.1,1.2L436,48l0.3,2.6l0.2,1.6l0.2,1.7l0.2,0l0,0.1l0.2,0.2l0.1,0.2l0.3,0.1l0.1,0l0,0.1
      l0.2,0l0.1,0.2l0.1,0l0,0.2l0.1,0.3l0.2,0.1l0.1,0.2l0,0.2l0.2,0.2l0,0.2l0,0l0.1,0l-0.1,0.3l0.1,0.2l-0.1,0.1l0,0.3l-0.1,0l0,0.2
      l0.1,0.1l0.1,0.1l0.2,0.2l0.1,0l0.1-0.1l0.1,0.1l0.2,0l-0.1,0.2l-0.2,0.1l0,0l0.2,0.2l0.2,0l0,0.1l0.1,0.1l-0.1,0.1l0,0.1l0.1,0.1
      l0.2,0l0,0.2l0.2,0l-0.3,0.4l0,0.1l0.2,0.2l0.1,0l0.1,0.1l0.1,0l0,0l0,0.2l0.2,0.1l-0.1,0.3l0.1,0.2l0.1,0.1l0.2-0.2l0.2,0l0,0.1
      l-0.1,0l0.1,0.1l-0.1,0l0.1,0.2l0.1,0l0,0.1l-0.2,0.1l0,0.1l0.1,0l0,0.1l0.2,0l0,0.2l0.2,0.1l-0.3,0.2l-0.1,0l0,0l0,0.1l0.1,0
      l-0.1,0.1l0.2,0l0.1,0.1l0,0l0.1,0.2l0,0.1l-0.1,0l0,0.2l-0.1,0l0,0.1l0.1,0.1l0.1,0.1l-0.1,0.1l0.1,0l0,0.1l-0.2,0.2l0,0.3
      l-0.2,0.2l0.1,0.1l-0.1,0l0.1,0.2l0,0.2l-0.3,0.1l-0.1,0.3l-0.1,0l0.1,0.1l-0.1,0.1l0.2,0.1l-0.2,0l-0.2,0.1l0,0.2l-0.1,0.2
      l0.2,0.2l-0.1,0.2l0.1,0.1l0,0.1l0.1,0.1l0,0.1l0.1,0.2l-0.2,0.1l-0.1,0.2l-0.1,0.2l0.1,0.1l-0.1,0.1l0,0.1l0.2,0.3l0.2,0l0,0.5
      l0,0.2l0.1,0.3l0.1,0l0,0.2l0.1,0l0,0.1l-0.1,0l0,0.2l-0.1,0l0,0.2l0.1,0.3l-0.3,0.5l-0.7,0.2l0,0.2l-0.6,1.3l1,1.1l-1.7,0.2
      l-2,1.2l-0.1,0.1l-2.2,1.2l-0.6,0.6l-0.2-0.1l0.7-0.8l0.8-0.6l0.5,0.1l0.2-0.4l-0.3,0.1l-0.2-0.1l-0.2-0.2l-1.6,0.5l0.5-1.1l0-0.8
      l-0.3-0.3l-0.7,0.3l-0.4,0.8l-0.3-0.1l-1.2-0.9l0.4,0.7l0.4,0.2l-0.1,1l0.8,0.4l-0.5,0.4l0.3-0.1l0,0.3l0.3,0l0-0.2l0.2,0.4
      l0.6,0.2l-0.6-0.1l0,0.7l-0.4-0.1l-0.7,1.2l-0.7,0l0,0.7l-0.2,0.1l-0.3,1.1l-1.9,1.7l-1.1,0.7l0.1-0.2l-0.8,0.2l-1.1,0.5l-0.1,0.6
      l1.8-1l-3.6,2.3l1.5-1l0-0.5l-1.8,0.8l0-0.2l0.6-0.2l-0.6-0.1l0.6-1.1l-0.4,0.7l-0.5,0.3l0.1-0.4l-0.4,0.7l-0.3,0.2l-0.2-0.4l0-0.5
      l-0.2,0.1l-0.2-0.3l0.2,0.5l0.2-0.2l-0.1,0.7l0.3,0.2l-0.8,0.5l0.4-0.4l-0.2-0.5l-0.2,0.5l-0.2-0.1l0-0.3l-0.4,0.1l0-0.5l-0.1-1
      l0,1l-0.1-0.2l-0.4,0.1l-0.1,0.3l0.4,0.4l0,0.5l0.3-0.2l0.6,0.5l-0.6,0.4l0.3,0l0.3-0.3l0.7,0.5l-1.9,1.2l-0.3-0.3l0-0.5l-0.3,0
      l-0.4-0.6l-0.3,0.3l0.3,0l0.2,0.3l-0.1,0.2l-0.6-0.1l0.5,0.4l0,0.3l0,0.4l0.1,0.3l-0.2,0.2l-1,0.9l0.2-1.2l-0.4,0.4l0.3,0.2
      l-0.2,0.6l-0.5-0.2l0-0.5l-0.8,0.6l0-0.3l-0.2,0l0.1,0.4l-0.7,0.5L416,89l-0.2,0.2l0.2-0.1l0.8-0.2l0.7-0.5l0.1,0.7l-0.6,0.9
      l-0.5,0.9l-0.4-0.1l0.2-0.1l-0.6-0.3l-0.6,0.3l0.1-0.3l-1,0.2l-0.1-0.2l-0.2,0.1l0.2,0.2l0.2,0.2l0.7-0.1l0,0.5l0.6,0.4l-0.2,0
      l0.2,0.2l-0.2,0.4l-0.3,0.1l0.4,0l0.2-0.7l0.5,0.1l-0.5,1.1l-0.5,2.1l-0.7,0.1l-0.1-1l-0.1,0.8l-0.5,0.4l-1.2-0.9l0.6,1l-0.8,0.1
      l1.8,0.4l0.9-0.4l-0.5,1.6l0.2,0.7l-0.7,0.2l0.2,1.1l0.5,0.4l0.4,1.6l0.2,0.7l-0.4,0.4l0.5,0.7l0.4,0.2l0.2,1.5l0.8,0.9l-0.1,0.6
      l0.5-0.1l0.3,0.4l-1,0l0,0.2l-0.6,0.2l0,0.6l-0.4,0l-1.3-0.7l0.1-0.2l-0.3,0l-0.3-0.5l-1.7-0.2l-1.3,0.1l-0.3,0.2l-0.1-0.3
      l-0.9,0.1l-0.7-0.3l0.1-0.2l-0.2-0.1l-0.3,0.2l-0.2-0.4l-0.3,0l-0.6-0.5l-0.3,0.2l-0.9-0.4l-0.6,0.2l-1.2-1.1l-0.7,0.2l-0.2-0.3
      l-1.3-0.1l0-0.6l-0.5-0.5l0-0.3l-1-2.3l-0.8-0.7l0-0.4l-0.5-0.3l0.1-1.4l-0.2-0.6l-0.6-0.4l0.3-1.5l-0.3-0.1l-0.2-0.9l-1.3-0.4
      l-0.8-1l-0.5-0.1l-0.6-1.6l-0.4-0.1l-0.8-1.2l-0.9-0.4l-0.1-0.3l-0.6-0.3l0-0.3l-0.5-0.6l-0.2-0.7l0.2-0.2l-0.6-0.3l0.1-0.4
      l-0.7-0.6l-0.8-1.9l-0.4-0.2l-0.2-1.3l-0.8-0.7l-0.2-0.6l-1.6-1.1l-0.5-0.8l-1.5-0.4l0-0.9l-0.4,0.4l0-0.6l-0.5,0l-0.4-0.7l0.1-0.2
      l-0.3,0.1l-0.2-0.2l-0.5,0.2l-0.1-0.4l-0.3,0.4l-0.4,0.1l-0.9-0.2l-0.3,0.1l-0.1-0.3l-0.8,0.2l-0.4-0.2l-0.7,0.3l-1.9-0.8l-0.3,0.3
      l-0.1,0.7l-0.9-0.1l-0.4,0.3l-0.2-0.2l-0.4,0.4l-0.3-0.1l-0.9,1.8l-0.1,1l-0.4,0.5l-0.2,0.7l0.3,0.3l-0.9,0.3l-1.2,1.8l-0.8-0.2
      l-0.1,0.2l-0.4-0.5l-0.3,0.2l-0.7-0.3l-0.4-0.6l-1.4-0.4l-0.1-0.3l-0.3,0l0.1-0.4l-0.1,0.1l-1.9-0.5l-0.9-0.6l-0.3-0.7l-1.3-0.6
      l-1.2-1.1l-0.3-1.1l-0.7-0.9l-0.1-1.2l0.2-0.8l-0.2-0.8l-0.8-1l0.1-0.2l-0.3-0.1l-0.3-1.5l-0.7-0.6l-0.1-0.4l-0.5,0l-1.1-1.1
      l-0.3,0.1l-0.2-0.3l-0.2,0.1L355,67l-0.1-0.4l-1-0.8l-0.3-0.7l-1.2-0.7L350.6,62.4"/>
    <text transform="matrix(1 0 0 1 381.4734 65.0927)" class="st2 st3 st4">Texas</text>
  </g>
</svg>