<?xml version="1.0" encoding="utf-8"?>
<svg version="1.1" xmlns="http://www.w3.org/2000/svg" xmlns:xlink="http://www.w3.org/1999/xlink" x="0px" y="0px"
   viewBox="6.5 140 150 100" style="enable-background:new 0 0 630 420;" xml:space="preserve" width="150" height="100">
  <style>
    path { fill: white; stroke: rgb(7, 119, 179) }
    text { font-family: "ff-dagny-web-pro", Helvetica Neue, Helvetica, sans-serif; }
  </style>
  <g id="west-virginia">
    <path vector-effect="none" class="st5" d="M101.7,202.9l-0.9,1.1l-0.9,0.6l-3.5-1.4l-1-2.5l-2.2-1.1l-0.6,1.1l0.1,0.8l-0.6,0.5
      l0.2,1.9l-0.8,0.9l-0.3,1.1l-0.7-0.1l-0.8,1l-0.1,0.4L90,208l-0.2,0.4l-0.8,0.5l-1.8,1.9l0.1,0.4l-0.5,1.1l0.1,0.5l-0.6,0.9
      l-0.2,0.8l-0.7,1.3l-1.2,0.9l-1.1,1.1l-0.3,0.6l-0.9,0.4l-0.3,0.5l0,0.5l-1.1,1.1l0.1,0.6l-0.7,0.6l0.1,0.8l-1.1,1.1l0.2,0.3
      l-0.2,0.5l0.1,0.3l1,0l0.7,0.5l-0.6,0.7l-1.5,0.8l-0.2,0.9l0.4,0.1l0.6-0.2l-0.2,0.7l-1.3,0.5l-0.1,0.4l-0.8,0.3l-0.8,0.8l-1.1,0.3
      l-0.2-0.3l0-0.7l-0.4-0.4l-0.7,0.1l-1.2,0.6l-2.3,1.5l-0.5-0.1l-0.4,0.1l0,0.2l-0.3,0.2l-0.1-0.4l-0.6-0.2l0-0.6l-1.1-0.3l-0.6,0.9
      l0.6,1l-0.2,0.3l-1.7,1l-0.7,0.2l-0.2-0.1l-0.1-0.3l-0.8,0.5l-2.5,0.2l-1.8,0.9l-1.8-1.5l-1-1.2l-0.7,0.7l-0.3,0.8l-1.6,0.7l-0.4,0
      l-0.2,0.5l-1.1,0.7l-2.3,0l-0.7-0.8l-0.8-0.4l-0.3-0.6l-0.8-0.4l-0.5,0.2l-0.5-0.2l-0.4-0.6l-0.1-0.5l-0.7-0.4l-0.6-0.9l0.2-1.2
      l-1.4-1.4l0.3-0.4l0.6-0.2l0.3-0.4l-0.5-0.7l-0.3-0.3l-1.1,0.3l-0.5-0.6l-0.2,0.7l-0.6-0.6l-1.2-0.3l-0.1-0.2l0.2-0.1l0.1-0.5
      l-0.6-0.1l-0.5-1.3l-0.4,0.4l-0.7-0.9l-1.2-0.4l-0.6-2l0.2-0.4l-0.4-0.7l-1.4-0.8l-0.3-1.6l-0.3-0.6l-1.3-0.8l0.2-0.5l0.3-0.3
      l0.1-0.6l-1-1.1l-1.3-2.6l-1.1-1l0-0.6l0.7-0.2l0.2-0.4l-0.1-1.2l0.6-0.1l0.3-0.3l-0.1-1l0.2-0.4l-0.5-1.6l0.3-1.2l0.2,0.2l0.6,0.1
      l1.1-0.1l1.7-0.6l0.4,0.1l1.4-0.3l0.3-0.6l0.6-3l0.4-0.4l1.2,0.3l0.6-0.2l0.3-1l-0.3-1.2l0.1-0.9l-0.6-1.9l0.4-0.7l1.1-0.9l0.2-1.6
      l0.9-1.4l0.4-0.7l0.6-0.3l0.4-0.7l0.9,0l0.5,0.6l0.8,0.1l0.2,0.2l0.6,1.4l-0.7,1l0.3,0.3l0.5,0.3l0.6-0.3l0.6-1.4l0.4-0.3l0.8,0.7
      l0.4-0.2l-0.4-1l0.2-1.3l-0.8-0.8l-0.2-0.6l0.1-0.3l0.7,0l0.7-0.4l0.2-0.8l-0.2-1.3l0.8-1l0.5-0.2l0.2-1.1l0.5-0.3l2,0.2l0.4-1.8
      l0.4-0.5l1.6-1.4l0.4-0.1l0.3,0.1l1.1,1.7l0.8-0.2l1.2-0.9l1,0l0.3-0.5l0.5-0.2l0.4-0.6l1.3-0.8l0.4-0.8l1.3-0.9l0.1-0.3l1-1
      l1.1-0.6l0.4,0l0.7-0.4l0.2-1l0.2-0.5l0.6-0.6l0-0.4l-0.5-0.5l-0.3-0.6l1.1-1.3l-0.1-0.8l0.6-0.4l0.2-0.4l-0.4-0.9l0.1-0.3l0.2-0.1
      l0.6,0.2l0.2-0.2l-0.1-0.7l0.5-1l0.1-1.4l0.8-3.1l0-0.4l0.5-0.7l0.6-1.4l0.7-0.8l0.2-0.8l-0.1-1.8l-0.4-0.4l0-0.3l0.6-2.2l-0.5-0.7
      l-0.1-0.9l-0.7-0.8l0-0.4l0.6-0.8l0.5-0.1l0.7,0.1l1.1-0.5L76,149l0,2l-0.2,6.4l-0.1,3.7l0,1.7l-0.1,6.3l1.9,0.1l10.5,0.2l3.1,0
      l5.8,0.1l-0.4,14l0.6-0.4l0.2,0l1.3-1.5l0.8-0.6l1.1-0.2l0.3-0.7l0.4-0.6l2-1.2l0.1-0.5l0.6-0.1l0.6-0.8l0.2-0.5l-0.2-0.2l0.7,0
      l0.1-0.4l0.3,0.1l1.6,1.2l0.3-0.6l1.8-1.7l0.7-1l0.6-0.1l-0.3-0.5l0.5-0.8l0-0.4l0.5-0.4l0.1,0.5l0.7,0l0,0.1l-0.1,0.3l-0.8,0.2
      l0.3,0.5l0.6,0.1l0.3,0.5l1,0.6l0.4,0l0.2,0.2l0.7-0.1l0.8,0.4l1.1-0.1l0.6,0.1l0.5-0.4l0.2-0.4l0.5,0l-0.8-0.8l0.2-0.3l1,0.1
      l-0.6-0.9l1,0.2l0.1-0.5l0.4,0l0.2-0.2l1.5,0.6l0.3-0.6l0.6-0.5l0-0.4l0.5-0.1l0.4-0.5l1.8,0.5l1.4,1.4l0.6,0.6l0.6-0.3l0.4,0.7
      l0.2-0.2l-0.2-0.6l0.2-0.1l0.7,0.6l0.3-0.1l0-0.4l0.7,0.4l0.3-0.1l0.1,0.9l-0.3,0.2l-0.7,0l-0.1,0.2l0.4,0.3l0.1,0.8l0.4-0.5
      l0.2,0.2l0.1-0.1l0.1,0.5l-0.5,0.3l0.5,0.2l1.1-0.1l-0.6,0.5l0.3,0.6l-0.4-0.1l0.2,0.3l-0.2,0.3l0,0.2l0.9,0.2l0.3,0.6l0.1,0.2
      l-0.4,0.5l0.2,0.5l-0.2,0.6l0.1,0.3l0.5,0.2l-0.7,0.9l-0.2,1l-0.8,1.3l-0.3,1.5l-0.2,0.3l-4.2-3.6l-4.1-3.3l-1-0.9l-1.5-0.9l-0.1,2
      l-0.3,0.5l0.4,0.3l0.1,0.3l-1.5,2.2l0.3,0.3l-0.5,0.9l0,0.4l0.4,0.7l-0.6,0.6l-0.4,0.8l-0.8,0.2l-0.3,0.5l-0.7,1l-0.6,0.6l0.3,0.3
      l-0.1,0.3L115,190l-0.7-0.3l-0.3,0.8l-0.7,0.8l-0.8,0.4l-0.1-0.7l-0.3,0l-0.2,0.5l-0.9,0.8l-0.5,1.2l-1.1,1.9l-2.5-2.2l-1,1.2
      l-0.4,0.2l0,0.8l-0.7,1.5l0,1.3l-0.7-0.1l-0.1,0.1L101.7,202.9"/>
    <path vector-effect="none" class="st8" d="M78.8,223.9l0.2,0.3l-0.2,0.5l0.1,0.3l1,0l0.7,0.5l-0.6,0.7l-1.5,0.8l-0.2,0.9l0.4,0.1
      l0.6-0.2l-0.2,0.7l-1.3,0.5l-0.1,0.4l-0.8,0.3l-0.8,0.8l-1.1,0.3l-0.2-0.3l0-0.7l-0.4-0.4l-0.7,0.1l-1.2,0.6l-2.3,1.5l-0.5-0.1
      l-0.4,0.1l0,0.2l-0.3,0.2l-0.1-0.4l-0.6-0.2l0-0.6l-1.1-0.3l-0.6,0.9l0.6,1l-0.2,0.3l-1.7,1l-0.7,0.2l-0.2-0.1l-0.1-0.3l-0.8,0.5
      l-2.5,0.2l-1.8,0.9l-1.8-1.5l-1-1.2l-0.7,0.7l-0.3,0.8l-1.6,0.7l-0.4,0l-0.2,0.5l-1.1,0.7l-2.3,0l-0.7-0.8l-0.8-0.4l-0.3-0.6
      l-0.8-0.4l-0.5,0.2l-0.5-0.2l-0.4-0.6l-0.1-0.5l-0.7-0.4l-0.6-0.9l0.2-1.2l-1.4-1.4l0.3-0.4l0.6-0.2l0.3-0.4l-0.5-0.7l-0.3-0.3
      l-1.1,0.3l-0.5-0.6l-0.2,0.7l-0.6-0.6l-1.2-0.3l-0.1-0.2l0.2-0.1l0.1-0.5l-0.6-0.1l-0.5-1.3l-0.4,0.4l-0.7-0.9l-1.2-0.4l-0.6-2
      l0.2-0.4l-0.4-0.7l-1.4-0.8l-0.3-1.6l-0.3-0.6l-1.3-0.8l0.2-0.5l0.3-0.3l0.1-0.6l-1-1.1l-1.3-2.6l-1.1-1l0-0.6l0.7-0.2l0.2-0.4
      l-0.1-1.2l0.6-0.1l0.3-0.3l-0.1-1l0.2-0.4l-0.5-1.6l0.3-1.2l0.2,0.2l0.6,0.1l1.1-0.1l1.7-0.6l0.4,0.1l1.4-0.3l0.3-0.6l0.6-3
      l0.4-0.4l1.2,0.3l0.6-0.2l0.3-1l-0.3-1.2l0.1-0.9l-0.6-1.9l0.4-0.7l1.1-0.9l0.2-1.6l0.9-1.4l0.4-0.7l0.6-0.3l0.4-0.7l0.9,0l0.5,0.6
      l0.8,0.1l0.2,0.2l0.6,1.4l-0.7,1l0.3,0.3l0.5,0.3l0.6-0.3l0.6-1.4l0.4-0.3l0.8,0.7l0.4-0.2l-0.4-1l0.2-1.3l-0.8-0.8l-0.2-0.6
      l0.1-0.3l0.7,0l0.7-0.4l0.2-0.8l-0.2-1.3l0.8-1l0.5-0.2l0.2-1.1l0.5-0.3l2,0.2l0.4-1.8l0.4-0.5l1.6-1.4l0.4-0.1l0.3,0.1l1.1,1.7
      l0.8-0.2l1.2-0.9l1,0l0.3-0.5l0.5-0.2l0.4-0.6l1.3-0.8l0.4-0.8l1.3-0.9l0.1-0.3l1-1l1.1-0.6l0.4,0l0.7-0.4l0.2-1l0.2-0.5l0.6-0.6
      l0-0.4l-0.5-0.5l-0.3-0.6l1.1-1.3l-0.1-0.8l0.6-0.4l0.2-0.4l-0.4-0.9l0.1-0.3l0.2-0.1l0.6,0.2l0.2-0.2l-0.1-0.7l0.5-1l0.1-1.4
      l0.8-3.1l0-0.4l0.5-0.7l0.6-1.4l0.7-0.8l0.2-0.8l-0.1-1.8l-0.4-0.4l0-0.3l0.6-2.2l-0.5-0.7l-0.1-0.9l-0.7-0.8l0-0.4l0.6-0.8
      l0.5-0.1l0.7,0.1l1.1-0.5L76,149l0,2l-0.2,6.4l-0.1,3.7l0,1.7l-0.1,6.3l1.9,0.1l10.5,0.2l3.1,0l5.8,0.1l-0.4,14l0.6-0.4l0.2,0
      l1.3-1.5l0.8-0.6l1.1-0.2l0.3-0.7l0.4-0.6l2-1.2l0.1-0.5l0.6-0.1l0.6-0.8l0.2-0.5l-0.2-0.2l0.7,0l0.1-0.4l0.3,0.1l1.6,1.2l0.3-0.6
      l1.8-1.7l0.7-1l0.6-0.1l-0.3-0.5l0.5-0.8l0-0.4l0.5-0.4l0.1,0.5l0.7,0l0,0.1l-0.1,0.3l-0.8,0.2l0.3,0.5l0.6,0.1l0.3,0.5l1,0.6
      l0.4,0l0.2,0.2l0.7-0.1l0.8,0.4l1.1-0.1l0.6,0.1l0.5-0.4l0.2-0.4l0.5,0l-0.8-0.8l0.2-0.3l1,0.1l-0.6-0.9l1,0.2l0.1-0.5l0.4,0
      l0.2-0.2l1.5,0.6l0.3-0.6l0.6-0.5l0-0.4l0.5-0.1l0.4-0.5l1.8,0.5l1.4,1.4l0.6,0.6l0.6-0.3l0.4,0.7l0.2-0.2l-0.2-0.6l0.2-0.1
      l0.7,0.6l0.3-0.1l0-0.4l0.7,0.4l0.3-0.1l0.1,0.9l-0.3,0.2l-0.7,0l-0.1,0.2l0.4,0.3l0.1,0.8l0.4-0.5l0.2,0.2l0.1-0.1l0.1,0.5
      l-0.5,0.3l0.5,0.2l1.1-0.1l-0.6,0.5l0.3,0.6l-0.4-0.1l0.2,0.3l-0.2,0.3l0,0.2l0.9,0.2l0.3,0.6l0.1,0.2l-0.4,0.5l0.2,0.5l-0.2,0.6
      l0.1,0.3l0.5,0.2l-0.7,0.9l-0.2,1l-0.8,1.3l-0.3,1.5l-0.2,0.3l-4.2-3.6l-4.1-3.3l-1-0.9l-1.5-0.9l-0.1,2l-0.3,0.5l0.4,0.3l0.1,0.3
      l-1.5,2.2l0.3,0.3l-0.5,0.9l0,0.4l0.4,0.7l-0.6,0.6l-0.4,0.8l-0.8,0.2l-0.3,0.5l-0.7,1l-0.6,0.6l0.3,0.3l-0.1,0.3"/>
    <path vector-effect="none" class="st8" d="M92.2,204.1l-0.8,0.9l-0.3,1.1l-0.7-0.1l-0.8,1l-0.1,0.4L90,208l-0.2,0.4l-0.8,0.5
      l-1.8,1.9l0.1,0.4"/>
    <g>
      <text transform="matrix(1 0 0 1 78.8497 202.7188)"><tspan x="0" y="0" class="st2 st3 st4">West</tspan><tspan x="-10.1" y="20" class="st2 st3 st4">Virginia</tspan></text>
    </g>
  </g>
</svg>